<svg version="1.1" id="Layer_1" xmlns="http://www.w3.org/2000/svg" xmlns:xlink="http://www.w3.org/1999/xlink" x="0px" y="0px"
	 width="100%" viewBox="0 0 1200 1200" enable-background="new 0 0 1200 1200" xml:space="preserve">
<path fill="#FFFFFF" opacity="1.000000" stroke="none" 
	d="
M1101.000000,1201.000000 
	C734.000000,1201.000000 367.500000,1201.000000 1.000000,1201.000000 
	C1.000000,801.000000 1.000000,401.000000 1.000000,1.000000 
	C401.000000,1.000000 801.000000,1.000000 1201.000000,1.000000 
	C1201.000000,401.000000 1201.000000,801.000000 1201.000000,1201.000000 
	C1167.833374,1201.000000 1134.666626,1201.000000 1101.000000,1201.000000 
M639.519104,613.022766 
	C640.097717,613.555786 640.676392,614.088806 641.255005,614.621826 
	C640.781616,614.138489 640.308228,613.655151 639.834778,613.171814 
	C657.100403,596.613098 674.366028,580.054382 691.872192,563.265015 
	C661.788513,533.771790 632.240417,504.803558 604.175903,477.289825 
	C585.172180,495.232117 565.344238,513.952576 545.232605,532.940857 
	C547.728088,535.628052 549.549805,537.589661 551.590088,539.786682 
	C554.717407,536.624878 557.389832,533.913025 560.073059,531.211975 
	C573.300720,517.896118 586.545105,504.596893 599.746582,491.255188 
	C601.836914,489.142609 603.629883,487.810455 606.363403,490.573181 
	C622.416321,506.797333 638.597046,522.895203 654.585205,539.182434 
	C655.409668,540.022278 655.570862,542.947510 654.837708,543.654907 
	C649.132141,549.160217 643.130981,554.359375 637.635925,559.281677 
	C636.163818,558.782654 633.879822,557.453918 631.529175,557.323120 
	C626.053040,557.018494 620.539612,557.435059 615.052673,557.239685 
	C613.424500,557.181641 611.433899,556.470337 610.290588,555.358154 
	C601.751953,547.051453 593.384460,538.568970 585.258057,530.436523 
	C583.147217,532.422302 581.228516,534.227234 579.047729,536.278870 
	C584.193787,541.423279 589.402466,546.527100 594.463501,551.773438 
	C595.525757,552.874634 596.044678,554.500000 596.813965,555.883789 
	C595.215027,556.516296 593.624451,557.669617 592.015869,557.695129 
	C582.853821,557.840759 573.684631,557.825012 564.525452,557.580322 
	C562.983704,557.539124 561.191223,556.413513 560.005554,555.276794 
	C553.915466,549.438049 547.985840,543.431885 541.482727,536.970093 
	C533.934082,544.656616 526.682739,552.436401 518.958435,559.714172 
	C515.792419,562.697144 516.459045,564.136292 519.140137,566.806030 
	C540.240723,587.817017 561.164124,609.005981 582.203918,630.078247 
	C589.329651,637.215027 596.633545,644.173828 603.676453,651.038940 
	C614.376038,640.521240 625.087219,630.087463 635.623901,619.480286 
	C636.627930,618.469543 636.541565,616.375488 638.031860,613.918640 
	C638.339111,613.577759 638.646362,613.236877 639.519104,613.022766 
z"/>
<path fill="#707070" opacity="1.000000" stroke="none" 
	d="
M636.961426,614.784363 
	C636.541565,616.375488 636.627930,618.469543 635.623901,619.480286 
	C625.087219,630.087463 614.376038,640.521240 603.676453,651.038940 
	C596.633545,644.173828 589.329651,637.215027 582.203918,630.078247 
	C561.164124,609.005981 540.240723,587.817017 519.140137,566.806030 
	C516.459045,564.136292 515.792419,562.697144 518.958435,559.714172 
	C526.682739,552.436401 533.934082,544.656616 541.482727,536.970093 
	C547.985840,543.431885 553.915466,549.438049 560.005554,555.276794 
	C561.191223,556.413513 562.983704,557.539124 564.525452,557.580322 
	C573.684631,557.825012 582.853821,557.840759 592.015869,557.695129 
	C593.624451,557.669617 595.215027,556.516296 596.813965,555.883789 
	C596.044678,554.500000 595.525757,552.874634 594.463501,551.773438 
	C589.402466,546.527100 584.193787,541.423279 579.047729,536.278870 
	C581.228516,534.227234 583.147217,532.422302 585.258057,530.436523 
	C593.384460,538.568970 601.751953,547.051453 610.290588,555.358154 
	C611.433899,556.470337 613.424500,557.181641 615.052673,557.239685 
	C620.539612,557.435059 626.053040,557.018494 631.529175,557.323120 
	C633.879822,557.453918 636.163818,558.782654 637.635925,559.281677 
	C643.130981,554.359375 649.132141,549.160217 654.837708,543.654907 
	C655.570862,542.947510 655.409668,540.022278 654.585205,539.182434 
	C638.597046,522.895203 622.416321,506.797333 606.363403,490.573181 
	C603.629883,487.810455 601.836914,489.142609 599.746582,491.255188 
	C586.545105,504.596893 573.300720,517.896118 560.073059,531.211975 
	C557.389832,533.913025 554.717407,536.624878 551.590088,539.786682 
	C549.549805,537.589661 547.728088,535.628052 545.232605,532.940857 
	C565.344238,513.952576 585.172180,495.232117 604.175903,477.289825 
	C632.240417,504.803558 661.788513,533.771790 691.872192,563.265015 
	C674.366028,580.054382 657.100403,596.613098 639.834778,613.171814 
	C640.308228,613.655151 640.781616,614.138489 641.255005,614.621826 
	C640.676392,614.088806 640.097717,613.555786 639.270630,612.661499 
	C638.791382,611.861572 638.650818,611.333374 638.316772,610.997314 
	C624.484863,597.081909 610.651489,583.167969 596.756531,569.315613 
	C595.734314,568.296448 594.266602,567.094421 592.983337,567.067810 
	C583.732056,566.875549 574.474976,566.964783 565.219727,566.964783 
	C564.985474,567.422302 564.751282,567.879822 564.517029,568.337280 
	C581.066467,585.011902 597.615967,601.686462 614.819336,619.019958 
	C608.448486,619.210632 603.810730,619.614868 599.381226,614.901428 
	C587.662231,602.430969 574.759644,591.062927 563.201782,578.455200 
	C557.934326,572.709351 552.368042,571.411560 545.499084,572.284363 
	C544.024109,572.471802 542.654297,573.486389 541.236023,574.119934 
	C541.921997,575.371338 542.364136,576.864624 543.330017,577.838379 
	C561.955322,596.615906 580.689270,615.285889 599.269836,634.107300 
	C602.394714,637.272644 604.537048,637.531128 607.744934,634.100586 
	C615.343872,625.974426 623.321960,618.202942 631.234375,610.199402 
	C633.402466,611.935120 635.181946,613.359741 636.961426,614.784363 
M647.860413,594.381653 
	C650.063843,592.882507 652.267273,591.383423 654.470703,589.884338 
	C654.343140,589.039307 654.215576,588.194275 654.088013,587.349243 
	C649.683838,583.340454 644.875000,579.686707 640.972107,575.238098 
	C635.377258,568.861145 629.197937,565.006165 620.382141,566.689331 
	C615.082825,567.701172 610.684021,565.813843 607.004028,561.912231 
	C606.005676,560.853760 604.560181,560.217163 603.319885,559.386902 
	C602.931824,559.855530 602.543762,560.324219 602.155762,560.792908 
	C613.937073,575.234985 628.396423,587.106995 641.517883,601.481201 
	C643.847290,598.844177 645.598389,596.861877 647.860413,594.381653 
M655.521057,556.020996 
	C651.953735,559.229675 648.386414,562.438354 645.046143,565.442810 
	C650.721008,571.182922 655.555542,576.073120 661.354187,581.938538 
	C666.458252,576.445984 671.720947,570.916504 676.767639,565.196411 
	C677.463013,564.408264 677.699829,562.102295 677.109558,561.471008 
	C672.841492,556.906433 668.305969,552.591919 663.008545,547.362427 
	C660.551941,550.235474 658.289917,552.880981 655.521057,556.020996 
M530.538025,562.780273 
	C538.376465,562.780273 546.214844,562.780273 554.338867,562.780273 
	C549.989563,558.328918 546.044006,554.290833 541.773987,549.920593 
	C537.865356,554.014954 534.026245,558.036438 530.538025,562.780273 
z"/>
<path fill="#FFFFFF" opacity="1.000000" stroke="none" 
	d="
M637.496643,614.351501 
	C635.181946,613.359741 633.402466,611.935120 631.234375,610.199402 
	C623.321960,618.202942 615.343872,625.974426 607.744934,634.100586 
	C604.537048,637.531128 602.394714,637.272644 599.269836,634.107300 
	C580.689270,615.285889 561.955322,596.615906 543.330017,577.838379 
	C542.364136,576.864624 541.921997,575.371338 541.236023,574.119934 
	C542.654297,573.486389 544.024109,572.471802 545.499084,572.284363 
	C552.368042,571.411560 557.934326,572.709351 563.201782,578.455200 
	C574.759644,591.062927 587.662231,602.430969 599.381226,614.901428 
	C603.810730,619.614868 608.448486,619.210632 614.819336,619.019958 
	C597.615967,601.686462 581.066467,585.011902 564.517029,568.337280 
	C564.751282,567.879822 564.985474,567.422302 565.219727,566.964783 
	C574.474976,566.964783 583.732056,566.875549 592.983337,567.067810 
	C594.266602,567.094421 595.734314,568.296448 596.756531,569.315613 
	C610.651489,583.167969 624.484863,597.081909 638.316772,610.997314 
	C638.650818,611.333374 638.791382,611.861572 638.987915,612.598083 
	C638.646362,613.236877 638.339111,613.577759 637.496643,614.351501 
z"/>
<path fill="#FFFFFF" opacity="1.000000" stroke="none" 
	d="
M647.604980,594.630615 
	C645.598389,596.861877 643.847290,598.844177 641.517883,601.481201 
	C628.396423,587.106995 613.937073,575.234985 602.155762,560.792908 
	C602.543762,560.324219 602.931824,559.855530 603.319885,559.386902 
	C604.560181,560.217163 606.005676,560.853760 607.004028,561.912231 
	C610.684021,565.813843 615.082825,567.701172 620.382141,566.689331 
	C629.197937,565.006165 635.377258,568.861145 640.972107,575.238098 
	C644.875000,579.686707 649.683838,583.340454 654.088013,587.349243 
	C654.215576,588.194275 654.343140,589.039307 654.470703,589.884338 
	C652.267273,591.383423 650.063843,592.882507 647.604980,594.630615 
z"/>
<path fill="#FFFFFF" opacity="1.000000" stroke="none" 
	d="
M655.774414,555.773804 
	C658.289917,552.880981 660.551941,550.235474 663.008545,547.362427 
	C668.305969,552.591919 672.841492,556.906433 677.109558,561.471008 
	C677.699829,562.102295 677.463013,564.408264 676.767639,565.196411 
	C671.720947,570.916504 666.458252,576.445984 661.354187,581.938538 
	C655.555542,576.073120 650.721008,571.182922 645.046143,565.442810 
	C648.386414,562.438354 651.953735,559.229675 655.774414,555.773804 
z"/>
<path fill="#FFFFFF" opacity="1.000000" stroke="none" 
	d="
M530.362610,562.419067 
	C534.026245,558.036438 537.865356,554.014954 541.773987,549.920593 
	C546.044006,554.290833 549.989563,558.328918 554.338867,562.780273 
	C546.214844,562.780273 538.376465,562.780273 530.362610,562.419067 
z"/>
</svg>