<svg version="1.1" id="Layer_1" xmlns="http://www.w3.org/2000/svg" xmlns:xlink="http://www.w3.org/1999/xlink" x="0px" y="0px"
	 width="100%" viewBox="0 0 256 352" enable-background="new 0 0 256 352" xml:space="preserve">
<path fill="#000000" opacity="1.000000" stroke="none" 
	d="
M257.000000,249.531342 
	C244.702133,264.808594 228.064560,274.403625 213.264847,286.181732 
	C189.813095,304.845398 165.946762,322.987579 142.297562,341.403992 
	C135.000656,347.086334 134.507492,347.302643 127.309692,341.755951 
	C113.208382,330.889435 99.282516,319.794983 85.161232,308.954865 
	C80.444168,305.333862 78.904892,300.570038 78.938225,295.014740 
	C79.162132,257.697021 79.412720,220.379456 79.668495,183.061935 
	C79.679749,181.419083 79.372818,179.468155 81.082611,178.537201 
	C83.039055,177.471954 84.527000,179.040649 85.951370,180.102203 
	C100.491158,190.938599 115.155716,201.616547 129.443787,212.776169 
	C133.645737,216.058060 136.712021,215.555222 140.496735,212.774811 
	C158.888214,199.263535 177.342621,185.837982 195.759094,172.360687 
	C207.989212,163.410599 220.155060,154.372116 232.431000,145.485565 
	C236.250046,142.720947 238.358276,139.358871 238.042694,134.531189 
	C237.847488,131.545349 237.570816,128.482010 238.005493,125.553619 
	C239.225388,117.335136 235.863388,111.941055 229.303528,107.028419 
	C199.609528,84.790695 170.232208,62.130257 140.725754,39.641857 
	C135.103226,35.356647 134.100830,35.360184 128.479355,39.504074 
	C112.264191,51.457130 96.059364,63.424271 79.873177,75.416527 
	C78.162918,76.683655 76.297043,77.917908 75.932381,80.780869 
	C85.447525,87.996437 95.087166,95.331772 104.755051,102.629692 
	C112.311333,108.333626 119.902206,113.991730 127.478798,119.668747 
	C128.773300,120.638702 129.974625,122.273460 131.821198,121.178886 
	C133.337906,120.279831 132.910782,118.484619 132.914917,117.048920 
	C132.959534,101.549858 132.943069,86.050629 132.955124,70.551453 
	C132.956421,68.885742 132.905136,67.205025 133.100479,65.557625 
	C133.489059,62.280663 134.926819,60.842045 138.027252,63.220791 
	C166.394897,84.985268 194.754745,106.759926 223.107330,128.544006 
	C223.352875,128.732697 223.468155,129.090912 224.207626,130.262772 
	C194.926590,151.569672 165.592468,172.915207 136.417252,194.145096 
	C133.293457,192.487549 133.527420,190.097717 133.537766,187.779877 
	C133.580887,178.114456 133.576065,168.448654 133.661285,158.783646 
	C133.710083,153.250793 131.768051,149.147202 127.072220,145.678299 
	C105.409370,129.675552 83.992493,113.339890 62.483158,97.129250 
	C56.768127,92.822075 56.272736,92.836342 50.340870,97.235382 
	C45.659134,100.707329 40.991222,104.198189 36.288235,107.641129 
	C32.979961,110.063034 31.135574,113.085320 31.303802,117.378006 
	C31.505966,122.536598 31.535076,127.717644 31.297880,132.873276 
	C31.073971,137.740097 32.906506,141.350342 37.074299,143.650284 
	C44.535172,147.767502 46.827202,154.576172 47.221088,162.448486 
	C47.555149,169.125153 46.436455,175.755020 46.420536,182.399780 
	C46.388630,195.718063 46.825779,209.036911 46.978008,222.356583 
	C47.020046,226.034561 48.407394,228.981323 51.582390,230.645752 
	C62.500740,236.369553 65.499680,245.999817 64.068726,257.177399 
	C62.953644,265.887573 64.074867,274.458679 64.000984,283.090027 
	C63.983189,285.168427 64.578278,287.846222 62.108200,288.836029 
	C59.786655,289.766296 58.155140,287.663269 56.490288,286.361694 
	C43.649288,276.322754 30.940229,266.109863 17.934546,256.289581 
	C13.263932,252.762909 10.890590,248.760452 10.903461,242.862976 
	C11.001296,198.032043 10.990566,153.200760 10.918580,108.369736 
	C10.909639,102.800964 12.667871,98.743797 17.400675,95.300041 
	C54.703518,68.157104 91.836609,40.780949 129.040375,13.501700 
	C134.154785,9.751613 136.354294,9.862559 141.507629,13.807815 
	C175.966751,40.188751 210.418900,66.578758 244.886810,92.948219 
	C248.712845,95.875313 252.623734,98.691483 256.747620,101.779549 
	C257.000000,151.020889 257.000000,200.041794 257.000000,249.531342 
M135.982330,275.493896 
	C135.980133,278.989899 135.914017,282.487549 136.004242,285.981171 
	C136.045685,287.585571 135.690598,289.583862 137.545273,290.408844 
	C139.121368,291.109894 140.380081,289.805908 141.550629,288.921692 
	C167.042923,269.665863 192.518494,250.387909 218.004181,231.123322 
	C221.415970,228.544342 223.093597,225.302170 223.022934,220.876968 
	C222.834244,209.061646 222.935883,197.241867 222.881149,185.424026 
	C222.873627,183.797424 223.027679,182.048752 221.300842,180.697830 
	C218.926514,180.644241 217.159485,182.212509 215.300201,183.564102 
	C190.539688,201.563538 165.824219,219.625610 140.969589,237.494110 
	C137.484985,239.999252 135.832047,242.804642 135.896698,247.028442 
	C136.036835,256.182770 135.967438,265.340271 135.982330,275.493896 
z"/>
</svg>